<svg width="125" height="24" viewBox="0 0 125 24" fill="none" xmlns="http://www.w3.org/2000/svg">
<path d="M1.99927 21C1.99927 17.9999 3.84937 15.6398 7.07955 14.9998C9.49969 14.5197 11.9998 12.9997 12.9999 11.9996M10.9995 20C9.24347 20.0053 7.54957 19.3504 6.25376 18.1653C4.95795 16.9802 4.15489 15.3513 4.00385 13.6018C3.85281 11.8523 4.36483 10.1099 5.43834 8.72023C6.51186 7.33055 8.06847 6.39509 9.79944 6.09938C15.4998 4.99933 16.9998 4.47931 19 1.99921C20 3.99929 21.0001 6.17938 21.0001 9.99954C21.0001 15.4998 16.2198 20 10.9995 20Z" stroke="#2F6B4F" stroke-width="2" stroke-linecap="round"/>
<path d="M35.3026 19H32.4901L37.6108 4.45455H40.8636L45.9915 19H43.179L39.294 7.4375H39.1804L35.3026 19ZM35.3949 13.2969H43.0653V15.4134H35.3949V13.2969ZM56.2401 10.9744L53.8963 11.2301C53.83 10.9934 53.714 10.7708 53.5483 10.5625C53.3873 10.3542 53.1695 10.1861 52.8949 10.0582C52.6203 9.9304 52.2841 9.86648 51.8864 9.86648C51.3513 9.86648 50.9015 9.98248 50.5369 10.2145C50.1771 10.4465 49.9995 10.7472 50.0043 11.1165C49.9995 11.4337 50.1155 11.6918 50.3523 11.8906C50.5938 12.0895 50.9915 12.2528 51.5455 12.3807L53.4062 12.7784C54.4384 13.0009 55.2055 13.3537 55.7074 13.8366C56.214 14.3196 56.4697 14.9517 56.4744 15.733C56.4697 16.4195 56.2685 17.0256 55.8707 17.5511C55.4777 18.072 54.9309 18.4792 54.2301 18.7727C53.5294 19.0663 52.7244 19.2131 51.8153 19.2131C50.4801 19.2131 49.4053 18.9337 48.5909 18.375C47.7765 17.8116 47.2912 17.0279 47.1349 16.0241L49.642 15.7827C49.7557 16.2751 49.9972 16.6468 50.3665 16.8977C50.7358 17.1487 51.2164 17.2741 51.8082 17.2741C52.419 17.2741 52.9091 17.1487 53.2784 16.8977C53.6525 16.6468 53.8395 16.3366 53.8395 15.9673C53.8395 15.6548 53.7188 15.3968 53.4773 15.1932C53.2405 14.9896 52.8712 14.8333 52.3693 14.7244L50.5085 14.3338C49.4621 14.116 48.688 13.7491 48.1861 13.233C47.6842 12.7121 47.4356 12.054 47.4403 11.2585C47.4356 10.5862 47.6179 10.0038 47.9872 9.51136C48.3613 9.0142 48.8797 8.63068 49.5426 8.3608C50.2102 8.08617 50.9796 7.94886 51.8509 7.94886C53.1293 7.94886 54.1354 8.22112 54.8693 8.76562C55.608 9.31013 56.0649 10.0464 56.2401 10.9744ZM61.1655 12.608V19H58.5945V4.45455H61.1087V9.9446H61.2365C61.4922 9.32907 61.8875 8.84375 62.4226 8.48864C62.9624 8.12879 63.6489 7.94886 64.4822 7.94886C65.2398 7.94886 65.9003 8.10748 66.4638 8.42472C67.0272 8.74195 67.4628 9.20597 67.7706 9.81676C68.0831 10.4276 68.2393 11.1733 68.2393 12.054V19H65.6683V12.4517C65.6683 11.7178 65.4789 11.1473 65.1001 10.7401C64.7261 10.3281 64.2005 10.1222 63.5234 10.1222C63.0689 10.1222 62.6617 10.2216 62.3018 10.4205C61.9467 10.6146 61.6674 10.8963 61.4638 11.2656C61.2649 11.6349 61.1655 12.0824 61.1655 12.608ZM75.6044 23.3182C74.6811 23.3182 73.888 23.1927 73.2251 22.9418C72.5623 22.6955 72.0296 22.3641 71.6271 21.9474C71.2247 21.5308 70.9453 21.0691 70.7891 20.5625L73.1044 20.0014C73.2086 20.2145 73.3601 20.4252 73.5589 20.6335C73.7578 20.8466 74.0253 21.0218 74.3615 21.1591C74.7024 21.3011 75.1309 21.3722 75.647 21.3722C76.3762 21.3722 76.9799 21.1946 77.4581 20.8395C77.9363 20.4891 78.1754 19.9115 78.1754 19.1065V17.0398H78.0476C77.915 17.3049 77.7209 17.5772 77.4652 17.8565C77.2143 18.1359 76.8804 18.3703 76.4638 18.5597C76.0518 18.7491 75.5334 18.8438 74.9084 18.8438C74.0703 18.8438 73.3104 18.6473 72.6286 18.2543C71.9515 17.8565 71.4117 17.2647 71.0092 16.4787C70.6115 15.688 70.4126 14.6984 70.4126 13.5099C70.4126 12.312 70.6115 11.3011 71.0092 10.4773C71.4117 9.64867 71.9538 9.02131 72.6357 8.59517C73.3175 8.1643 74.0774 7.94886 74.9155 7.94886C75.5547 7.94886 76.0803 8.05777 76.4922 8.27557C76.9089 8.48864 77.2403 8.74669 77.4865 9.04972C77.7327 9.34801 77.9197 9.62973 78.0476 9.89489H78.1896V8.09091H80.7251V19.1776C80.7251 20.1103 80.5026 20.8821 80.0575 21.4929C79.6125 22.1037 79.004 22.5606 78.2322 22.8636C77.4605 23.1667 76.5845 23.3182 75.6044 23.3182ZM75.6257 16.8267C76.1702 16.8267 76.6342 16.6941 77.0178 16.429C77.4013 16.1638 77.6925 15.7827 77.8913 15.2855C78.0902 14.7884 78.1896 14.1918 78.1896 13.4957C78.1896 12.8092 78.0902 12.2079 77.8913 11.6918C77.6972 11.1757 77.4084 10.7756 77.0249 10.4915C76.6461 10.2027 76.1797 10.0582 75.6257 10.0582C75.0528 10.0582 74.5746 10.2074 74.1911 10.5057C73.8075 10.804 73.5187 11.2135 73.3246 11.7344C73.1304 12.2505 73.0334 12.8376 73.0334 13.4957C73.0334 14.1634 73.1304 14.7481 73.3246 15.25C73.5234 15.7472 73.8146 16.1354 74.1982 16.4148C74.5864 16.6894 75.0623 16.8267 75.6257 16.8267ZM83.3601 19V8.09091H85.853V9.90909H85.9666C86.1655 9.27936 86.5064 8.79403 86.9893 8.45312C87.477 8.10748 88.0334 7.93466 88.6584 7.93466C88.8004 7.93466 88.959 7.94176 89.1342 7.95597C89.3142 7.96544 89.4633 7.98201 89.5817 8.00568V10.3707C89.4728 10.3329 89.3 10.2997 89.0632 10.2713C88.8312 10.2382 88.6063 10.2216 88.3885 10.2216C87.9197 10.2216 87.4983 10.3234 87.1243 10.527C86.755 10.7259 86.4638 11.0028 86.2507 11.358C86.0376 11.7131 85.9311 12.1226 85.9311 12.5866V19H83.3601ZM95.5991 19.2131C94.5337 19.2131 93.6104 18.9787 92.8292 18.5099C92.0479 18.0412 91.4419 17.3854 91.011 16.5426C90.5849 15.6998 90.3718 14.715 90.3718 13.5881C90.3718 12.4612 90.5849 11.474 91.011 10.6264C91.4419 9.77888 92.0479 9.12074 92.8292 8.65199C93.6104 8.18324 94.5337 7.94886 95.5991 7.94886C96.6644 7.94886 97.5877 8.18324 98.369 8.65199C99.1502 9.12074 99.7539 9.77888 100.18 10.6264C100.611 11.474 100.826 12.4612 100.826 13.5881C100.826 14.715 100.611 15.6998 100.18 16.5426C99.7539 17.3854 99.1502 18.0412 98.369 18.5099C97.5877 18.9787 96.6644 19.2131 95.5991 19.2131ZM95.6133 17.1534C96.1909 17.1534 96.6739 16.9948 97.0621 16.6776C97.4504 16.3556 97.7392 15.9247 97.9286 15.3849C98.1228 14.8452 98.2198 14.2438 98.2198 13.581C98.2198 12.9134 98.1228 12.3097 97.9286 11.7699C97.7392 11.2254 97.4504 10.7921 97.0621 10.4702C96.6739 10.1482 96.1909 9.98722 95.6133 9.98722C95.0214 9.98722 94.529 10.1482 94.136 10.4702C93.7478 10.7921 93.4566 11.2254 93.2624 11.7699C93.073 12.3097 92.9783 12.9134 92.9783 13.581C92.9783 14.2438 93.073 14.8452 93.2624 15.3849C93.4566 15.9247 93.7478 16.3556 94.136 16.6776C94.529 16.9948 95.0214 17.1534 95.6133 17.1534ZM112.382 8.09091L108.497 19H105.656L101.771 8.09091H104.512L107.02 16.1946H107.133L109.647 8.09091H112.382ZM118.619 19.2131C117.526 19.2131 116.581 18.9858 115.786 18.5312C114.995 18.072 114.386 17.4233 113.96 16.5852C113.534 15.7424 113.321 14.7505 113.321 13.6094C113.321 12.4872 113.534 11.5024 113.96 10.6548C114.391 9.80256 114.992 9.13968 115.764 8.66619C116.536 8.18797 117.443 7.94886 118.484 7.94886C119.157 7.94886 119.791 8.05777 120.388 8.27557C120.989 8.48864 121.519 8.82008 121.979 9.26989C122.443 9.7197 122.807 10.2926 123.072 10.9886C123.338 11.6799 123.47 12.5038 123.47 13.4602V14.2486H114.528V12.5156H121.006C121.001 12.0232 120.894 11.5852 120.686 11.2017C120.478 10.8134 120.187 10.508 119.812 10.2855C119.443 10.063 119.012 9.9517 118.52 9.9517C117.994 9.9517 117.533 10.0795 117.135 10.3352C116.737 10.5862 116.427 10.9176 116.205 11.3295C115.987 11.7367 115.875 12.1842 115.871 12.6719V14.1847C115.871 14.8191 115.987 15.3636 116.219 15.8182C116.451 16.268 116.775 16.6136 117.192 16.8551C117.608 17.0919 118.096 17.2102 118.655 17.2102C119.029 17.2102 119.367 17.1581 119.67 17.054C119.973 16.9451 120.236 16.7865 120.459 16.5781C120.681 16.3698 120.849 16.1117 120.963 15.804L123.364 16.0739C123.212 16.7083 122.923 17.2623 122.497 17.7358C122.076 18.2045 121.536 18.5691 120.878 18.8295C120.22 19.0852 119.467 19.2131 118.619 19.2131Z" fill="#1F1D1A"/>
</svg>
